<svg width="564" height="113" viewBox="0 0 564 113" fill="none" xmlns="http://www.w3.org/2000/svg">
<g clip-path="url(#clip0_1085_5479)">
<path d="M36 73.5699C34.4662 71.6841 32.5291 70.1662 30.3313 69.1278C28.1334 68.0895 25.7308 67.5571 23.3 67.5699C15 67.5699 8.5 74.9699 8.5 83.1699C8.5 92.2699 14.8 98.8699 23.9 98.8699C28.9 98.8699 32.9 96.5699 36.1 92.9699V103.97C32.3314 106.025 28.0914 107.059 23.8 106.97C10.7 106.97 0 96.8699 0 83.6699C0 69.9699 10.6 59.7699 24.2 59.7699C28.2952 59.7302 32.3292 60.7646 35.9 62.7699V73.5699H36Z" fill="black"/>
<path d="M53.2 105.27H44.7V39.8701H53.2V105.27Z" fill="black"/>
<path d="M108 83.2701C108 87.9575 106.61 92.5397 104.006 96.4371C101.402 100.335 97.7003 103.372 93.3697 105.166C89.0391 106.96 84.2738 107.429 79.6765 106.515C75.0791 105.6 70.8562 103.343 67.5417 100.029C64.2272 96.714 61.97 92.4911 61.0555 87.8937C60.141 83.2964 60.6104 78.5311 62.4042 74.2005C64.198 69.8699 67.2356 66.1684 71.1331 63.5643C75.0305 60.9601 79.6127 59.5701 84.3001 59.5701C87.4277 59.5145 90.5345 60.0896 93.435 61.2609C96.3356 62.4323 98.9704 64.176 101.182 66.3879C103.394 68.5998 105.138 71.2347 106.309 74.1352C107.481 77.0357 108.056 80.1425 108 83.2701ZM69.0001 83.2701C69.0592 86.2629 70.0006 89.1716 71.7063 91.6315C73.412 94.0913 75.8061 95.9928 78.5882 97.0974C81.3703 98.202 84.4166 98.4605 87.3451 97.8405C90.2736 97.2206 92.9538 95.7498 95.0497 93.6126C97.1455 91.4753 98.5637 88.7669 99.1263 85.8269C99.6889 82.8868 99.3708 79.8461 98.2121 77.0861C97.0534 74.3261 95.1055 71.9697 92.6128 70.3124C90.12 68.6551 87.1935 67.7707 84.2001 67.7701C80.1373 67.8358 76.264 69.4994 73.419 72.4005C70.574 75.3017 68.9864 79.2068 69.0001 83.2701Z" fill="black"/>
<path d="M132.8 71.07C132.325 69.9613 131.548 69.0081 130.558 68.3187C129.568 67.6294 128.405 67.2314 127.2 67.17C126.03 67.1675 124.904 67.6108 124.049 68.4096C123.195 69.2084 122.676 70.3027 122.6 71.47C122.6 75.37 127.7 77.07 133 79.47C138.3 81.87 143.3 85.07 143.3 92.07C143.3 100.47 136.3 106.77 128 106.77C121.6 106.77 115.1 103.07 112.6 96.77L119.9 93.47C121.7 96.77 123.9 99.07 128 99.07C131.7 99.07 134.7 96.67 134.7 92.77C134.7 90.47 133.6 89.27 131.6 87.87L123.3 83.47C118.3 80.77 114.8 78.37 114.8 72.27C114.813 70.5628 115.162 68.8749 115.828 67.3027C116.493 65.7304 117.462 64.3047 118.678 63.1068C119.895 61.9089 121.335 60.9623 122.918 60.3212C124.5 59.68 126.193 59.3568 127.9 59.37C133.3 59.37 137.6 62.37 140.1 67.07L132.8 71.07Z" fill="black"/>
<path d="M155.5 84.57C155.6 92.17 160.7 99.27 168.9 99.27C175.4 99.27 179 95.97 182.2 90.67L189.4 94.77C187.392 98.4778 184.416 101.571 180.788 103.72C177.16 105.868 173.016 106.992 168.8 106.97C155.2 106.97 147 96.67 147 83.67C147 70.07 154.3 59.77 168.6 59.77C182.9 59.77 189.4 70.17 189.4 83.47V84.77H155.5V84.57ZM180.9 78.07C179.9 71.47 175.5 66.97 168.6 66.97C165.51 66.9761 162.529 68.1056 160.21 70.1479C157.892 72.1902 156.396 75.0059 156 78.07H180.9Z" fill="black"/>
<path d="M205 68.1699H205.3C207.4 62.9699 211.7 59.6699 217.5 59.6699C219.992 59.7403 222.416 60.502 224.5 61.8699L220.6 69.5699C219.157 68.3336 217.299 67.6904 215.4 67.7699C206.2 67.7699 205.1 76.2699 205.1 83.4699V105.27H196.6V60.8699H205.1L205 68.1699Z" fill="black"/>
<path d="M337.22 59.0901V63.0901H335.99C335.68 63.0901 335.56 63.0101 335.51 62.8401C335.39 62.2928 335.307 61.7383 335.26 61.1801H331.03V75.2701C331.133 75.2595 331.237 75.2595 331.34 75.2701C331.99 75.4 332.42 75.4701 332.59 75.5201C332.76 75.57 332.84 75.72 332.84 75.97V77.03H326.76V75.97C326.757 75.8481 326.799 75.7293 326.878 75.6369C326.958 75.5444 327.069 75.4849 327.19 75.47L328.57 75.2V61.1201H324.32C324.276 61.6868 324.202 62.2508 324.1 62.8101C324.1 62.9801 323.9 63.0601 323.6 63.0601H322.39V59.0601H337.22V59.0901Z" fill="black"/>
<path d="M346.64 64.1601C347.232 64.1262 347.823 64.2264 348.37 64.4532C348.917 64.6801 349.406 65.0277 349.8 65.4701C350.58 66.4725 350.974 67.7217 350.91 68.9901V75.2501C351.71 75.4001 352.19 75.5001 352.34 75.5501C352.452 75.5651 352.553 75.6221 352.624 75.7095C352.694 75.7969 352.729 75.908 352.72 76.0201V77.0801H348.72V68.9901C348.72 66.9901 347.82 65.9901 346.03 65.9901C345.366 66.0177 344.716 66.1916 344.126 66.4992C343.537 66.8069 343.023 67.2408 342.62 67.7701V75.3101H342.92L344.02 75.5401C344.134 75.5547 344.239 75.6107 344.314 75.6973C344.39 75.7839 344.431 75.8951 344.43 76.0101V77.0701H338.54V76.0101C338.539 75.8951 338.581 75.7839 338.656 75.6973C338.732 75.6107 338.836 75.5547 338.95 75.5401L340.35 75.2601V60.4201C339.397 60.2734 338.847 60.1734 338.7 60.1201C338.585 60.1052 338.478 60.0479 338.403 59.9591C338.327 59.8704 338.287 59.7567 338.29 59.6401V58.5801H342.62V66.0701C343.121 65.4896 343.737 65.02 344.429 64.6911C345.121 64.3623 345.874 64.1814 346.64 64.1601Z" fill="black"/>
<path d="M359.78 64.16C360.501 64.1558 361.216 64.2847 361.89 64.54C362.517 64.7714 363.084 65.1404 363.55 65.62C364.034 66.132 364.409 66.7378 364.65 67.4C364.921 68.178 365.056 68.9964 365.05 69.82C365.078 70.0581 365.043 70.2992 364.95 70.52C364.893 70.5813 364.823 70.6291 364.745 70.6602C364.667 70.6913 364.584 70.7049 364.5 70.7H356.06C356.047 71.4148 356.148 72.1272 356.36 72.81C356.543 73.3486 356.832 73.845 357.21 74.27C357.553 74.6651 357.985 74.9735 358.47 75.17C358.982 75.3747 359.529 75.4766 360.08 75.47C360.572 75.4812 361.064 75.424 361.54 75.3C361.883 75.1808 362.218 75.0371 362.54 74.87C362.84 74.72 363.1 74.59 363.3 74.47C363.445 74.3589 363.618 74.2897 363.8 74.27C363.885 74.2644 363.97 74.2818 364.046 74.3206C364.121 74.3593 364.185 74.4179 364.23 74.49L364.85 75.32C364.569 75.6625 364.231 75.9535 363.85 76.18C363.467 76.4358 363.054 76.644 362.62 76.8C362.176 76.9514 361.721 77.0716 361.26 77.16C360.804 77.2347 360.342 77.2748 359.88 77.28C359.045 77.2881 358.217 77.1353 357.44 76.83C356.707 76.5336 356.048 76.0795 355.51 75.5C354.939 74.8868 354.509 74.1565 354.25 73.36C353.935 72.4227 353.783 71.4386 353.8 70.45C353.795 69.6085 353.937 68.7726 354.22 67.98C354.488 67.2469 354.888 66.569 355.4 65.98C355.932 65.4112 356.575 64.9584 357.29 64.65C358.077 64.3177 358.926 64.1541 359.78 64.17V64.16ZM359.85 65.8C359.385 65.7712 358.92 65.8389 358.483 65.999C358.046 66.1591 357.646 66.408 357.31 66.73C356.656 67.4539 356.253 68.3691 356.16 69.34H363.07C363.073 68.8605 362.995 68.3839 362.84 67.93C362.72 67.5161 362.516 67.1314 362.24 66.8C361.957 66.4941 361.618 66.2461 361.24 66.07C360.801 65.8963 360.332 65.8113 359.86 65.82L359.85 65.8Z" fill="black"/>
<path d="M380.1 64.1601C380.693 64.1254 381.286 64.2252 381.835 64.452C382.384 64.6789 382.875 65.0269 383.27 65.4701C384.05 66.4725 384.444 67.7217 384.38 68.9901V75.2501C385.18 75.4001 385.66 75.5001 385.81 75.5501C385.921 75.5651 386.023 75.6221 386.094 75.7095C386.164 75.7969 386.199 75.908 386.19 76.0201V77.0801H382.19V68.9901C382.19 66.9901 381.29 65.9901 379.5 65.9901C378.834 66.0176 378.183 66.1914 377.592 66.499C377.001 66.8066 376.485 67.2406 376.08 67.7701V75.3101H376.38L377.49 75.5401C377.603 75.5549 377.707 75.6112 377.781 75.698C377.854 75.7849 377.893 75.8961 377.89 76.0101V77.0701H372.01V76.0101C372.007 75.8961 372.046 75.7849 372.12 75.698C372.193 75.6112 372.297 75.5549 372.41 75.5401L373.82 75.2601V60.4201C372.82 60.2701 372.31 60.1701 372.16 60.1201C372.046 60.103 371.942 60.0447 371.869 59.9562C371.795 59.8677 371.756 59.7552 371.76 59.6401V58.5801H376.08V66.0701C376.582 65.4915 377.198 65.0232 377.89 64.6945C378.582 64.3657 379.334 64.1838 380.1 64.1601Z" fill="black"/>
<path d="M395.96 64.6701C396.689 64.9591 397.348 65.4026 397.89 65.9701C398.436 66.5621 398.849 67.2646 399.1 68.0301C399.673 69.7947 399.673 71.6955 399.1 73.4601C398.849 74.2255 398.436 74.9281 397.89 75.5201C397.348 76.0907 396.69 76.5375 395.96 76.8301C394.346 77.423 392.574 77.423 390.96 76.8301C390.231 76.5351 389.573 76.0885 389.03 75.5201C388.485 74.9232 388.067 74.2226 387.8 73.4601C387.253 71.6914 387.253 69.7987 387.8 68.0301C388.067 67.2676 388.485 66.5669 389.03 65.9701C389.574 65.4048 390.232 64.9616 390.96 64.6701C392.572 64.0647 394.348 64.0647 395.96 64.6701ZM396.26 74.3201C396.87 73.2381 397.19 72.0171 397.19 70.7751C397.19 69.5331 396.87 68.3121 396.26 67.2301C395.935 66.8007 395.508 66.4601 395.016 66.2398C394.525 66.0196 393.986 65.9268 393.45 65.9701C392.882 65.953 392.316 66.0553 391.79 66.2701C391.323 66.4974 390.924 66.842 390.63 67.2701C390.297 67.7208 390.059 68.2345 389.93 68.7801C389.763 69.454 389.679 70.1458 389.68 70.8401C389.681 71.5145 389.765 72.1862 389.93 72.8401C390.063 73.3841 390.301 73.897 390.63 74.3501C390.931 74.7462 391.331 75.0565 391.79 75.2501C392.312 75.4841 392.878 75.6034 393.45 75.6001C393.993 75.6345 394.535 75.5306 395.027 75.298C395.518 75.0653 395.942 74.7116 396.26 74.2701V74.3201Z" fill="black"/>
<path d="M404.83 66.15C405.233 65.5611 405.767 65.0739 406.39 64.7268C407.013 64.3797 407.708 64.1822 408.42 64.15C409.191 64.1189 409.944 64.3795 410.53 64.8799C411.086 65.4094 411.487 66.08 411.69 66.8199C411.995 65.981 412.582 65.274 413.35 64.8199C414.014 64.4046 414.778 64.1766 415.56 64.1599C416.242 64.1458 416.92 64.2577 417.56 64.49C418.079 64.6856 418.543 65.0048 418.91 65.4199C419.714 66.4294 420.11 67.703 420.02 68.99V75.2699C420.82 75.4199 421.33 75.5199 421.48 75.5699C421.59 75.5801 421.691 75.633 421.762 75.7172C421.834 75.8014 421.869 75.9101 421.86 76.0199V77.1299H417.86V69.0099C417.929 68.2023 417.697 67.3979 417.21 66.7499C416.967 66.4904 416.67 66.2865 416.34 66.1519C416.011 66.0173 415.656 65.9552 415.3 65.9699C414.947 65.959 414.595 66.0208 414.266 66.1515C413.938 66.2823 413.64 66.4791 413.39 66.7299C413.103 67.0289 412.882 67.3841 412.739 67.773C412.596 68.162 412.535 68.5763 412.56 68.99V75.2699C412.71 75.2699 413.18 75.4199 413.99 75.5699C414.1 75.5801 414.201 75.633 414.272 75.7172C414.344 75.8014 414.379 75.9101 414.37 76.0199V77.1099H410.32V68.99C410.32 66.99 409.52 65.99 407.91 65.99C407.339 66.0203 406.783 66.1868 406.289 66.4755C405.795 66.7643 405.377 67.1669 405.07 67.65V75.2899L405.75 75.4199L406.5 75.5699C406.612 75.5849 406.713 75.642 406.784 75.7294C406.855 75.8168 406.889 75.9279 406.88 76.0399V77.0999H401.02V76.0399C401.006 75.9314 401.034 75.8216 401.1 75.7338C401.165 75.646 401.262 75.5872 401.37 75.5699L402.83 75.2899V66.2199C402.03 66.0699 401.52 65.9699 401.37 65.9199C401.261 65.9003 401.164 65.8395 401.099 65.7501C401.034 65.6607 401.006 65.5496 401.02 65.4399V64.3799H404.14C404.278 64.3742 404.414 64.4172 404.524 64.5012C404.633 64.5853 404.71 64.7052 404.74 64.84L404.92 66.1399L404.83 66.15Z" fill="black"/>
<path d="M428.87 64.1601C429.591 64.155 430.306 64.2838 430.98 64.5401C431.61 64.7663 432.178 65.1361 432.64 65.6201C433.128 66.1315 433.505 66.7373 433.75 67.4001C434.02 68.178 434.156 68.9965 434.15 69.8201C434.173 70.058 434.138 70.2979 434.05 70.5201C433.992 70.5802 433.922 70.6274 433.844 70.6584C433.767 70.6894 433.683 70.7036 433.6 70.7001H425.15C425.137 71.4149 425.238 72.1272 425.45 72.8101C425.64 73.3474 425.932 73.8431 426.31 74.2701C426.649 74.6696 427.082 74.9788 427.57 75.1701C428.078 75.3747 428.622 75.4767 429.17 75.4701C429.662 75.4824 430.154 75.4252 430.63 75.3001C430.993 75.183 431.348 75.0393 431.69 74.8701C431.99 74.7201 432.24 74.5901 432.44 74.4701C432.585 74.3589 432.758 74.2898 432.94 74.2701C433.025 74.2644 433.11 74.2819 433.185 74.3206C433.261 74.3594 433.325 74.4179 433.37 74.4901L434 75.3201C433.718 75.6618 433.38 75.9527 433 76.1801C432.617 76.4359 432.204 76.6441 431.77 76.8001C431.329 76.9526 430.878 77.0729 430.42 77.1601C429.96 77.2347 429.496 77.2748 429.03 77.2801C428.195 77.2874 427.367 77.1346 426.59 76.8301C425.857 76.5337 425.198 76.0796 424.66 75.5001C424.095 74.8824 423.666 74.1535 423.4 73.3601C423.085 72.4228 422.933 71.4386 422.95 70.4501C422.944 69.6076 423.089 68.7708 423.38 67.9801C423.648 67.2469 424.048 66.5691 424.56 65.9801C425.086 65.4093 425.727 64.956 426.44 64.6501C427.228 64.3197 428.076 64.1562 428.93 64.1701L428.87 64.1601ZM428.95 65.8001C428.485 65.77 428.019 65.8372 427.582 65.9973C427.145 66.1574 426.745 66.407 426.41 66.7301C425.753 67.453 425.346 68.3681 425.25 69.3401H432.16C432.166 68.8611 432.091 68.3845 431.94 67.9301C431.816 67.5155 431.609 67.1309 431.33 66.8001C431.051 66.4899 430.71 66.2412 430.33 66.0701C429.891 65.8963 429.422 65.8113 428.95 65.8201V65.8001Z" fill="black"/>
<path d="M449.35 64.6701C450.08 64.9592 450.738 65.4026 451.28 65.9701C451.827 66.5621 452.239 67.2647 452.49 68.0301C453.063 69.7947 453.063 71.6955 452.49 73.4601C452.239 74.2256 451.827 74.9281 451.28 75.5201C450.739 76.0907 450.08 76.5376 449.35 76.8301C448.55 77.1399 447.698 77.2927 446.84 77.2801C445.979 77.2917 445.124 77.139 444.32 76.8301C443.591 76.5351 442.933 76.0886 442.39 75.5201C441.846 74.9233 441.427 74.2226 441.16 73.4601C440.613 71.6914 440.613 69.7988 441.16 68.0301C441.427 67.2676 441.846 66.567 442.39 65.9701C442.934 65.4048 443.592 64.9617 444.32 64.6701C445.122 64.3532 445.978 64.1969 446.84 64.2101C447.699 64.1958 448.552 64.3522 449.35 64.6701ZM449.65 74.3201C450.26 73.2381 450.58 72.0171 450.58 70.7751C450.58 69.5331 450.26 68.3121 449.65 67.2301C449.326 66.8007 448.898 66.4601 448.407 66.2399C447.916 66.0196 447.377 65.9268 446.84 65.9701C446.272 65.9531 445.706 66.0553 445.18 66.2701C444.715 66.5001 444.316 66.8441 444.02 67.2701C443.687 67.7209 443.449 68.2346 443.32 68.7801C443.153 69.4541 443.069 70.1459 443.07 70.8401C443.071 71.5145 443.155 72.1862 443.32 72.8401C443.453 73.3842 443.691 73.897 444.02 74.3501C444.324 74.744 444.723 75.0538 445.18 75.2501C445.702 75.4841 446.268 75.6035 446.84 75.6001C447.391 75.6433 447.944 75.5436 448.445 75.3106C448.946 75.0776 449.378 74.7192 449.7 74.2701L449.65 74.3201Z" fill="black"/>
<path d="M460.96 60.54C459.25 60.54 458.39 61.54 458.39 63.43V64.67H462.06V66.27H458.44V75.27C459.44 75.42 460 75.52 460.13 75.54C460.242 75.5574 460.342 75.6168 460.411 75.7061C460.48 75.7955 460.512 75.9078 460.5 76.02V77.1H454.27V76.02C454.261 75.9068 454.295 75.7945 454.366 75.7054C454.436 75.6164 454.538 75.5573 454.65 75.54L456.21 75.27V66.27L454.8 66.1C454.4 66 454.2 65.82 454.2 65.52V64.67H456.2V63.43C456.157 62.8145 456.239 62.1965 456.442 61.6137C456.645 61.031 456.964 60.4955 457.38 60.04C457.801 59.6328 458.302 59.3176 458.851 59.1144C459.4 58.9113 459.986 58.8246 460.57 58.86C461.106 58.8659 461.639 58.9501 462.15 59.11L462.1 60.24C462.105 60.3079 462.085 60.3751 462.045 60.4299C462.004 60.4848 461.946 60.5237 461.88 60.54C461.691 60.5861 461.495 60.6029 461.3 60.59H460.95L460.96 60.54Z" fill="black"/>
<path d="M330.7 106.21V107.29H324.82V106.21C324.816 106.095 324.855 105.982 324.929 105.894C325.003 105.805 325.106 105.747 325.22 105.73L326.63 105.46V90.61C326.155 90.5312 325.684 90.4277 325.22 90.3C325.109 90.2899 325.005 90.2377 324.931 90.1541C324.857 90.0706 324.817 89.9618 324.82 89.85V88.77H328.89V105.43C329.69 105.58 330.14 105.68 330.3 105.73C330.414 105.747 330.518 105.805 330.591 105.894C330.665 105.982 330.704 106.095 330.7 106.21Z" fill="black"/>
<path d="M340.44 94.8301C341.168 95.1217 341.826 95.5648 342.37 96.1301C342.916 96.7258 343.329 97.4316 343.58 98.2001C344.153 99.9612 344.153 101.859 343.58 103.62C343.331 104.387 342.918 105.09 342.37 105.68C341.829 106.252 341.171 106.699 340.44 106.99C339.636 107.299 338.781 107.452 337.92 107.44C337.062 107.453 336.21 107.3 335.41 106.99C334.678 106.701 334.019 106.254 333.48 105.68C332.932 105.084 332.51 104.383 332.24 103.62C331.707 101.853 331.707 99.9674 332.24 98.2001C332.513 97.4352 332.934 96.7318 333.48 96.1301C334.022 95.5626 334.68 95.1192 335.41 94.8301C336.21 94.5203 337.062 94.3675 337.92 94.3801C338.781 94.3685 339.636 94.5212 340.44 94.8301ZM340.74 104.48C341.35 103.398 341.67 102.177 341.67 100.935C341.67 99.6931 341.35 98.4721 340.74 97.3901C340.412 96.9613 339.983 96.6213 339.49 96.4012C338.998 96.1811 338.458 96.0879 337.92 96.1301C337.354 96.1156 336.792 96.2212 336.27 96.4401C335.803 96.6675 335.403 97.012 335.11 97.4401C334.779 97.892 334.541 98.4053 334.41 98.9501C334.235 99.6228 334.148 100.315 334.15 101.01C334.149 101.685 334.236 102.358 334.41 103.01C334.541 103.555 334.779 104.068 335.11 104.52C335.411 104.916 335.811 105.227 336.27 105.42C336.789 105.653 337.351 105.772 337.92 105.77C338.454 105.803 338.988 105.702 339.473 105.477C339.959 105.252 340.38 104.909 340.7 104.48H340.74Z" fill="black"/>
<path d="M349.33 96.3901C349.85 95.7752 350.496 95.2786 351.224 94.9337C351.952 94.5888 352.745 94.4034 353.55 94.3901C354.138 94.3518 354.726 94.4471 355.272 94.6687C355.817 94.8904 356.306 95.2328 356.7 95.6701C357.455 96.6761 357.837 97.9134 357.78 99.1701V105.42C358.58 105.57 359.06 105.67 359.21 105.72C359.324 105.737 359.428 105.796 359.501 105.884C359.575 105.972 359.614 106.085 359.61 106.2V107.28H355.54V99.1901C355.54 97.1901 354.66 96.1201 352.88 96.1201C352.206 96.1491 351.547 96.3241 350.948 96.6332C350.349 96.9423 349.824 97.378 349.41 97.9101V105.45C349.41 105.45 349.96 105.55 350.87 105.75C350.982 105.767 351.084 105.826 351.154 105.916C351.225 106.005 351.259 106.117 351.25 106.23V107.28H345.39V106.23C345.375 106.12 345.404 106.009 345.469 105.92C345.534 105.831 345.631 105.77 345.74 105.75L347.2 105.47V96.4001C346.39 96.2501 345.89 96.1501 345.74 96.1001C345.631 96.0805 345.534 96.0197 345.469 95.9303C345.404 95.8409 345.375 95.7298 345.39 95.6201V94.6201H348.51C348.647 94.6139 348.781 94.6554 348.891 94.7375C349 94.8196 349.078 94.9371 349.11 95.0701L349.31 96.4501L349.33 96.3901Z" fill="black"/>
<path d="M366.01 94.4001C366.529 94.391 367.047 94.4515 367.55 94.58C368.009 94.6946 368.448 94.8802 368.85 95.13H372.32V95.9601C372.32 96.2401 372.15 96.4101 371.79 96.4901L370.36 96.69C370.646 97.2494 370.783 97.8725 370.76 98.5C370.78 99.0682 370.671 99.6335 370.441 100.153C370.21 100.673 369.865 101.134 369.43 101.5C368.981 101.873 368.47 102.164 367.92 102.36C367.303 102.557 366.657 102.649 366.01 102.63C365.443 102.635 364.877 102.561 364.33 102.41C364.097 102.553 363.893 102.74 363.73 102.96C363.599 103.113 363.528 103.309 363.53 103.51C363.519 103.645 363.545 103.78 363.607 103.9C363.669 104.021 363.764 104.121 363.88 104.19C364.186 104.37 364.527 104.482 364.88 104.52C365.338 104.582 365.798 104.615 366.26 104.62C366.76 104.62 367.26 104.62 367.82 104.72C368.343 104.749 368.864 104.809 369.38 104.9C369.858 104.989 370.322 105.141 370.76 105.35C371.16 105.558 371.503 105.86 371.76 106.23C372.022 106.648 372.144 107.138 372.11 107.63C372.118 108.192 371.98 108.747 371.71 109.24C371.399 109.768 370.988 110.23 370.5 110.6C369.943 111.027 369.312 111.349 368.64 111.55C367.829 111.809 366.981 111.931 366.13 111.91C365.301 111.929 364.473 111.835 363.67 111.63C363.055 111.472 362.468 111.219 361.93 110.88C361.519 110.6 361.178 110.231 360.93 109.8C360.708 109.417 360.588 108.983 360.58 108.54C360.568 107.947 360.782 107.371 361.18 106.93C361.638 106.448 362.208 106.087 362.84 105.88C362.505 105.727 362.213 105.493 361.99 105.2C361.769 104.865 361.654 104.471 361.66 104.07C361.669 103.88 361.703 103.692 361.76 103.51C361.819 103.292 361.921 103.088 362.06 102.91C362.216 102.708 362.394 102.523 362.59 102.36C362.811 102.188 363.045 102.035 363.29 101.9C362.684 101.569 362.174 101.087 361.81 100.5C361.455 99.8938 361.272 99.2024 361.28 98.5C361.264 97.9193 361.387 97.3432 361.64 96.82C361.877 96.3263 362.218 95.8896 362.64 95.54C363.103 95.168 363.633 94.8865 364.2 94.7101C364.824 94.5121 365.476 94.4175 366.13 94.4301L366.01 94.4001ZM370.01 108.05C370.021 107.775 369.933 107.505 369.76 107.29C369.56 107.079 369.308 106.924 369.03 106.84C368.704 106.735 368.369 106.658 368.03 106.61C367.63 106.56 367.23 106.51 366.77 106.49C366.31 106.47 365.89 106.49 365.44 106.44C364.99 106.39 364.56 106.34 364.16 106.29C363.715 106.484 363.314 106.767 362.98 107.12C362.683 107.44 362.522 107.863 362.53 108.3C362.526 108.582 362.602 108.86 362.75 109.1C362.921 109.363 363.155 109.58 363.43 109.73C363.781 109.933 364.163 110.078 364.56 110.16C365.09 110.267 365.63 110.317 366.17 110.31C366.712 110.306 367.251 110.246 367.78 110.13C368.205 110.045 368.611 109.886 368.98 109.66C369.283 109.483 369.542 109.24 369.74 108.95C369.916 108.683 370.01 108.37 370.01 108.05ZM366.01 101.16C366.419 101.165 366.825 101.098 367.21 100.96C367.537 100.846 367.837 100.666 368.09 100.43C368.339 100.206 368.522 99.9195 368.62 99.6C368.732 99.2782 368.793 98.9407 368.8 98.6C368.815 98.2562 368.758 97.913 368.632 97.5926C368.507 97.2722 368.315 96.9818 368.07 96.7401C367.474 96.2984 366.752 96.06 366.01 96.06C365.268 96.06 364.546 96.2984 363.95 96.7401C363.708 96.9831 363.52 97.2743 363.398 97.5947C363.275 97.9151 363.222 98.2576 363.24 98.6C363.243 98.944 363.314 99.284 363.45 99.6C363.559 99.9062 363.737 100.183 363.97 100.41C364.226 100.641 364.525 100.817 364.85 100.93C365.223 101.06 365.616 101.121 366.01 101.11V101.16Z" fill="black"/>
<path d="M379.63 106.21V107.29H373.78V106.21C373.781 106.1 373.817 105.994 373.884 105.907C373.951 105.821 374.044 105.758 374.15 105.73L375.61 105.46V96.3899L374.15 96.1099C374.042 96.0847 373.947 96.0231 373.88 95.9357C373.812 95.8483 373.777 95.7403 373.78 95.6299V94.6299H377.78V105.51L379.21 105.78C379.317 105.796 379.416 105.847 379.492 105.925C379.568 106.002 379.616 106.102 379.63 106.21ZM375.26 91.2099C375.169 91.0232 375.125 90.8174 375.13 90.6099C375.125 90.3928 375.169 90.1773 375.26 89.9799C375.349 89.7867 375.467 89.608 375.61 89.4499C375.755 89.3056 375.925 89.1873 376.11 89.0999C376.301 89.0123 376.51 88.9712 376.72 88.9799C376.927 88.9712 377.132 89.0124 377.32 89.0999C377.505 89.1873 377.674 89.3056 377.82 89.4499C377.963 89.608 378.081 89.7867 378.17 89.9799C378.267 90.1759 378.318 90.3913 378.32 90.6099C378.318 90.8189 378.266 91.0245 378.17 91.2099C378.083 91.3984 377.964 91.5708 377.82 91.7199C377.674 91.8642 377.505 91.9826 377.32 92.0699C377.132 92.1575 376.927 92.1986 376.72 92.1899C376.51 92.1987 376.301 92.1575 376.11 92.0699C375.925 91.9826 375.755 91.8642 375.61 91.7199C375.463 91.5617 375.344 91.379 375.26 91.1799V91.2099Z" fill="black"/>
<path d="M383.4 106.67C383.113 106.342 382.894 105.96 382.757 105.546C382.619 105.132 382.566 104.695 382.6 104.26V96.4699H381.06C380.936 96.4765 380.812 96.4413 380.71 96.3699C380.662 96.3197 380.626 96.2598 380.603 96.1942C380.581 96.1286 380.573 96.0589 380.58 95.9899V95.1099L382.67 94.8299L383.17 90.8899C383.167 90.8312 383.179 90.7727 383.206 90.7201C383.232 90.6675 383.271 90.6227 383.32 90.5899C383.424 90.514 383.552 90.4784 383.68 90.4899H384.81V94.8599H388.45V96.4899H384.81V104.13C384.77 104.566 384.903 105.001 385.18 105.34C385.455 105.585 385.812 105.717 386.18 105.71C386.394 105.708 386.606 105.675 386.81 105.61C386.97 105.567 387.122 105.5 387.26 105.41C387.39 105.34 387.47 105.26 387.57 105.21C387.648 105.163 387.732 105.13 387.82 105.11C387.883 105.114 387.944 105.135 387.997 105.17C388.05 105.205 388.092 105.253 388.12 105.31L388.77 106.37C388.361 106.739 387.886 107.027 387.37 107.22C386.829 107.418 386.257 107.519 385.68 107.52C385.263 107.538 384.846 107.472 384.454 107.326C384.062 107.18 383.704 106.957 383.4 106.67Z" fill="black"/>
<path d="M396.46 105.73C397.128 105.706 397.782 105.537 398.378 105.234C398.973 104.932 399.496 104.504 399.91 103.98V96.4401C399.76 96.4401 399.28 96.2901 398.48 96.1301C398.368 96.1175 398.265 96.0611 398.194 95.9731C398.123 95.8851 398.089 95.7726 398.1 95.6601V94.5801H402.1V105.48C402.586 105.555 403.067 105.659 403.54 105.79C403.594 105.795 403.647 105.811 403.694 105.836C403.742 105.861 403.785 105.896 403.819 105.938C403.853 105.98 403.879 106.028 403.895 106.08C403.91 106.132 403.916 106.186 403.91 106.24V107.32H400.77C400.63 107.321 400.494 107.274 400.385 107.186C400.276 107.099 400.2 106.977 400.17 106.84L399.99 105.48C399.478 106.104 398.833 106.606 398.104 106.952C397.374 107.298 396.578 107.478 395.77 107.48C395.177 107.512 394.585 107.408 394.038 107.178C393.49 106.947 393.002 106.596 392.61 106.15C391.833 105.154 391.44 103.912 391.5 102.65V96.3701C390.7 96.2201 390.24 96.1201 390.09 96.0701C389.976 96.053 389.873 95.9946 389.799 95.9062C389.725 95.8177 389.686 95.7052 389.69 95.5901V94.5901H393.76V102.67C393.705 103.476 393.935 104.276 394.41 104.93C394.664 105.202 394.975 105.413 395.321 105.548C395.668 105.683 396.04 105.738 396.41 105.71L396.46 105.73Z" fill="black"/>
<path d="M410.7 94.33C411.356 94.3105 412.008 94.4346 412.611 94.6937C413.214 94.9528 413.753 95.3407 414.19 95.83V90.61L412.51 90.3C412.4 90.2898 412.299 90.2369 412.228 90.1528C412.157 90.0686 412.122 89.9599 412.13 89.85V88.75H416.41V105.43C417.21 105.58 417.71 105.68 417.86 105.73C417.967 105.745 418.064 105.802 418.13 105.888C418.196 105.974 418.224 106.083 418.21 106.19V107.29H415.1C414.96 107.292 414.824 107.247 414.713 107.161C414.603 107.076 414.524 106.956 414.49 106.82L414.29 105.28C413.796 105.948 413.152 106.491 412.411 106.866C411.67 107.241 410.851 107.438 410.02 107.44C409.344 107.469 408.671 107.334 408.058 107.047C407.445 106.759 406.91 106.328 406.5 105.79C405.554 104.364 405.098 102.668 405.2 100.96C405.129 99.2624 405.652 97.5932 406.68 96.24C407.151 95.6315 407.759 95.1418 408.453 94.8101C409.148 94.4784 409.91 94.314 410.68 94.33H410.7ZM410.7 105.67C411.384 105.649 412.052 105.462 412.646 105.124C413.241 104.786 413.743 104.307 414.11 103.73V97.6C413.781 97.1269 413.341 96.7418 412.828 96.4785C412.316 96.2152 411.746 96.0818 411.17 96.09C410.638 96.0607 410.107 96.1599 409.621 96.3792C409.136 96.5985 408.71 96.9315 408.38 97.35C407.66 98.4149 407.309 99.6865 407.38 100.97C407.38 103.38 407.98 104.84 409.24 105.39C409.7 105.59 410.199 105.686 410.7 105.67Z" fill="black"/>
<path d="M425.41 106.21V107.29H419.55V106.21C419.551 106.099 419.589 105.992 419.658 105.905C419.727 105.818 419.822 105.757 419.93 105.73L421.39 105.46V96.3901L419.93 96.1101C419.821 96.0869 419.723 96.0262 419.653 95.9385C419.584 95.8509 419.547 95.7418 419.55 95.6301V94.6301H423.55V105.51L424.98 105.78C425.089 105.795 425.19 105.844 425.268 105.922C425.346 106 425.396 106.101 425.41 106.21ZM421.04 91.2101C420.949 91.0234 420.905 90.8176 420.91 90.6101C420.905 90.393 420.949 90.1775 421.04 89.9801C421.129 89.7869 421.247 89.6082 421.39 89.4501C421.535 89.3058 421.705 89.1875 421.89 89.1001C422.077 89.0126 422.283 88.9714 422.49 88.9801C422.7 88.9706 422.909 89.0117 423.1 89.1001C423.285 89.1875 423.454 89.3058 423.6 89.4501C423.743 89.6082 423.861 89.7869 423.95 89.9801C424.047 90.1761 424.098 90.3915 424.1 90.6101C424.098 90.8191 424.046 91.0247 423.95 91.2101C423.863 91.3986 423.744 91.5709 423.6 91.7201C423.454 91.8644 423.285 91.9827 423.1 92.0701C422.909 92.1585 422.7 92.1996 422.49 92.1901C422.283 92.1988 422.077 92.1576 421.89 92.0701C421.705 91.9827 421.535 91.8644 421.39 91.7201C421.243 91.5619 421.124 91.3792 421.04 91.1801V91.2101Z" fill="black"/>
<path d="M430.81 96.39C431.33 95.7751 431.976 95.2785 432.704 94.9336C433.432 94.5886 434.225 94.4033 435.03 94.39C435.621 94.3478 436.214 94.4412 436.763 94.6631C437.313 94.8849 437.804 95.2293 438.2 95.67C438.955 96.676 439.337 97.9133 439.28 99.17V105.42C440.08 105.57 440.56 105.67 440.71 105.72C440.824 105.737 440.928 105.795 441.001 105.884C441.075 105.972 441.114 106.085 441.11 106.2V107.28H437.04V99.19C437.04 97.19 436.16 96.12 434.38 96.12C433.706 96.149 433.047 96.324 432.448 96.6331C431.849 96.9422 431.324 97.3779 430.91 97.91V105.45C430.91 105.45 431.46 105.55 432.37 105.75C432.481 105.767 432.582 105.827 432.651 105.916C432.72 106.005 432.752 106.118 432.74 106.23V107.28H426.89V106.23C426.875 106.12 426.904 106.009 426.969 105.92C427.034 105.83 427.131 105.77 427.24 105.75L428.7 105.47V96.4C427.9 96.25 427.39 96.15 427.24 96.1C427.131 96.0804 427.034 96.0195 426.969 95.9301C426.904 95.8407 426.875 95.7297 426.89 95.62V94.62H430.01C430.147 94.6138 430.281 94.6553 430.391 94.7374C430.5 94.8194 430.578 94.937 430.61 95.07L430.81 96.45V96.39Z" fill="black"/>
<path d="M453.6 105.67C453.708 105.695 453.805 105.756 453.874 105.843C453.943 105.93 453.98 106.039 453.98 106.15V107.23H451.36C451.182 107.226 451.006 107.192 450.84 107.13C450.69 107.08 450.64 106.93 450.58 106.73L450.33 105.52C449.98 105.83 449.63 106.1 449.33 106.35C449.027 106.599 448.69 106.804 448.33 106.96C447.974 107.113 447.606 107.237 447.23 107.33C446.783 107.427 446.327 107.471 445.87 107.46C445.407 107.463 444.946 107.385 444.51 107.23C444.097 107.107 443.713 106.903 443.38 106.63C443.064 106.328 442.809 105.968 442.63 105.57C442.427 105.097 442.331 104.584 442.35 104.07C442.343 103.581 442.464 103.098 442.7 102.67C443.048 102.149 443.514 101.718 444.06 101.41C444.812 100.988 445.625 100.684 446.47 100.51C447.677 100.266 448.908 100.155 450.14 100.18V99.1799C450.199 98.3732 449.968 97.5719 449.49 96.9199C449.253 96.657 448.96 96.4505 448.633 96.3156C448.306 96.1806 447.953 96.1206 447.6 96.1399C447.129 96.1237 446.66 96.2019 446.22 96.3699C445.889 96.4878 445.571 96.6385 445.27 96.8199C444.99 96.9899 444.74 97.1199 444.54 97.2699C444.376 97.4017 444.171 97.4723 443.96 97.4699C443.819 97.4808 443.679 97.4457 443.56 97.3699C443.455 97.2896 443.37 97.1871 443.31 97.0699L442.91 96.3699C443.564 95.7313 444.33 95.2194 445.17 94.8599C446.029 94.5078 446.952 94.3375 447.88 94.3599C448.534 94.3408 449.185 94.4601 449.79 94.7099C450.309 94.9304 450.778 95.2535 451.17 95.6599C451.564 96.0941 451.857 96.6096 452.03 97.1699C452.229 97.8173 452.32 98.4929 452.3 99.1699V105.53C452.66 105.6 453.41 105.75 453.56 105.8L453.6 105.67ZM450.13 101.55C449.256 101.533 448.383 101.593 447.52 101.73C446.914 101.834 446.323 102.012 445.76 102.26C445.366 102.417 445.021 102.676 444.76 103.01C444.554 103.302 444.449 103.653 444.46 104.01C444.461 104.303 444.522 104.592 444.64 104.86C444.731 105.098 444.887 105.306 445.09 105.46C445.288 105.61 445.511 105.722 445.75 105.79C446.015 105.876 446.291 105.92 446.57 105.92C447.262 105.916 447.945 105.759 448.57 105.46C448.865 105.306 449.143 105.122 449.4 104.91C449.662 104.69 449.913 104.456 450.15 104.21L450.13 101.55Z" fill="black"/>
<path d="M461.31 106.21V107.29H455.43V106.21C455.426 106.095 455.465 105.982 455.539 105.894C455.612 105.805 455.716 105.747 455.83 105.73L457.24 105.46V90.61C456.44 90.46 455.99 90.35 455.83 90.3C455.719 90.2899 455.615 90.2377 455.541 90.1541C455.467 90.0706 455.427 89.9618 455.43 89.85V88.77H459.5V105.43C460.31 105.58 460.76 105.68 460.91 105.73C461.024 105.747 461.127 105.805 461.201 105.894C461.275 105.982 461.314 106.095 461.31 106.21Z" fill="black"/>
<path d="M472.12 97.1699C473.05 95.2799 474.33 94.3299 475.99 94.3299C476.597 94.3184 477.196 94.4741 477.72 94.7799L477.44 96.4599C477.44 96.6599 477.27 96.7899 477.12 96.7899C476.912 96.7745 476.707 96.7308 476.51 96.6599C476.184 96.5753 475.847 96.5349 475.51 96.5399C474.06 96.5399 472.95 97.4399 472.25 99.1999V105.48C472.45 105.53 472.93 105.61 473.68 105.76C473.792 105.777 473.894 105.836 473.964 105.925C474.035 106.014 474.069 106.127 474.06 106.24V107.29H468.2V106.24C468.191 106.127 468.225 106.014 468.296 105.925C468.366 105.836 468.468 105.777 468.58 105.76L470.01 105.48V96.4099C469.21 96.2599 468.73 96.1599 468.58 96.1099C468.468 96.0926 468.366 96.0335 468.296 95.9445C468.225 95.8555 468.191 95.7431 468.2 95.6299V94.6299H471.29C471.54 94.6299 471.67 94.6299 471.77 94.7499C471.881 94.8879 471.95 95.0543 471.97 95.2299L472.12 97.2299V97.1699Z" fill="black"/>
<path d="M484.15 94.38C484.87 94.3715 485.586 94.497 486.26 94.75C486.888 94.9802 487.456 95.3494 487.92 95.8301C488.41 96.3435 488.788 96.953 489.03 97.6201C489.301 98.3946 489.436 99.2097 489.43 100.03C489.453 100.268 489.419 100.508 489.33 100.73C489.272 100.79 489.202 100.837 489.125 100.868C489.047 100.899 488.964 100.914 488.88 100.91H480.43C480.417 101.625 480.519 102.337 480.73 103.02C480.914 103.56 481.207 104.057 481.59 104.48C481.928 104.877 482.357 105.186 482.84 105.38C483.352 105.584 483.899 105.686 484.45 105.68C484.943 105.692 485.434 105.635 485.91 105.51C486.273 105.391 486.627 105.248 486.97 105.08C487.27 104.93 487.52 104.8 487.72 104.68C487.866 104.569 488.038 104.5 488.22 104.48C488.305 104.474 488.39 104.492 488.466 104.531C488.541 104.569 488.605 104.628 488.65 104.7L489.28 105.53C489.002 105.875 488.663 106.166 488.28 106.39C487.897 106.649 487.484 106.861 487.05 107.02C486.606 107.171 486.152 107.288 485.69 107.37C485.234 107.445 484.773 107.485 484.31 107.49C483.476 107.497 482.647 107.345 481.87 107.04C481.137 106.744 480.478 106.29 479.94 105.71C479.378 105.094 478.955 104.364 478.7 103.57C478.386 102.633 478.233 101.649 478.25 100.66C478.243 99.8207 478.389 98.9871 478.68 98.2001C478.943 97.4645 479.343 96.7857 479.86 96.2001C480.386 95.6292 481.027 95.176 481.74 94.8701C482.53 94.5477 483.377 94.3879 484.23 94.4001L484.15 94.38ZM484.23 96.01C483.766 95.98 483.3 96.0472 482.862 96.2073C482.425 96.3674 482.026 96.617 481.69 96.94C481.037 97.6653 480.631 98.5792 480.53 99.5501H487.44C487.447 99.0743 487.372 98.6009 487.22 98.1501C487.095 97.7334 486.887 97.3458 486.61 97.01C486.333 96.7 485.992 96.4543 485.61 96.29C485.173 96.1083 484.703 96.0197 484.23 96.03V96.01Z" fill="black"/>
<path d="M495.88 94.3799C497.015 94.4269 498.136 94.653 499.2 95.0499V98.3199H498.2C498.149 98.3268 498.096 98.3232 498.046 98.3091C497.996 98.295 497.949 98.2708 497.909 98.238C497.869 98.2052 497.836 98.1645 497.812 98.1184C497.788 98.0723 497.774 98.0217 497.77 97.9699C497.77 97.9199 497.72 97.3699 497.62 96.3099C496.967 96.1384 496.295 96.0444 495.62 96.0299C494.994 96.0159 494.381 96.2131 493.88 96.5899C493.685 96.7148 493.523 96.8842 493.406 97.0841C493.29 97.2841 493.223 97.5088 493.21 97.7399C493.19 97.9182 493.206 98.0987 493.258 98.2706C493.309 98.4424 493.395 98.6021 493.51 98.7399C493.903 99.1611 494.405 99.4656 494.96 99.6199C495.59 99.8199 496.12 99.9399 496.52 100.09L497.73 100.55C498.096 100.711 498.434 100.931 498.73 101.2C499.063 101.46 499.327 101.797 499.501 102.182C499.675 102.567 499.754 102.988 499.73 103.41C499.753 103.958 499.653 104.504 499.439 105.01C499.224 105.515 498.9 105.966 498.49 106.33C497.553 107.122 496.357 107.542 495.13 107.51C493.726 107.504 492.332 107.274 491 106.83V103.47H491.91C491.999 103.464 492.088 103.491 492.158 103.546C492.228 103.602 492.275 103.682 492.29 103.77C492.29 103.85 492.29 104.38 492.44 105.38C493.253 105.746 494.139 105.921 495.03 105.89C495.751 105.927 496.461 105.704 497.03 105.26C497.224 105.105 497.382 104.911 497.494 104.69C497.606 104.47 497.67 104.227 497.68 103.98C497.71 103.602 497.604 103.226 497.38 102.92C497.17 102.671 496.911 102.466 496.62 102.32C496.302 102.152 495.966 102.018 495.62 101.92C494.51 101.56 493.73 101.31 493.28 101.11C492.873 100.93 492.493 100.694 492.15 100.41C491.803 100.125 491.526 99.7642 491.342 99.3546C491.158 98.9451 491.072 98.4985 491.09 98.0499C491.085 97.558 491.191 97.0712 491.4 96.6262C491.61 96.1811 491.917 95.7892 492.3 95.4799C493.312 94.682 494.585 94.2898 495.87 94.3799H495.88Z" fill="black"/>
<path d="M507.44 94.38C508.16 94.3715 508.876 94.497 509.55 94.75C510.178 94.9802 510.746 95.3494 511.21 95.8301C511.7 96.3435 512.078 96.953 512.32 97.6201C512.591 98.3946 512.726 99.2097 512.72 100.03C512.743 100.268 512.709 100.508 512.62 100.73C512.562 100.79 512.492 100.837 512.415 100.868C512.337 100.899 512.254 100.914 512.17 100.91H503.7C503.687 101.625 503.789 102.337 504 103.02C504.188 103.559 504.48 104.055 504.86 104.48C505.199 104.88 505.632 105.189 506.12 105.38C506.629 105.585 507.172 105.687 507.72 105.68C508.213 105.692 508.704 105.635 509.18 105.51C509.543 105.391 509.897 105.248 510.24 105.08C510.54 104.93 510.79 104.8 510.99 104.68C511.136 104.569 511.308 104.5 511.49 104.48C511.575 104.474 511.66 104.492 511.736 104.531C511.811 104.569 511.875 104.628 511.92 104.7L512.55 105.53C512.274 105.877 511.935 106.169 511.55 106.39C511.167 106.649 510.754 106.861 510.32 107.02C509.879 107.169 509.428 107.286 508.97 107.37C508.511 107.444 508.046 107.484 507.58 107.49C506.749 107.498 505.924 107.345 505.15 107.04C504.413 106.746 503.75 106.292 503.21 105.71C502.641 105.096 502.211 104.366 501.95 103.57C501.636 102.633 501.483 101.649 501.5 100.66C501.493 99.8207 501.639 98.9871 501.93 98.2001C502.193 97.4645 502.593 96.7857 503.11 96.2001C503.636 95.6292 504.277 95.176 504.99 94.8701C505.78 94.5477 506.627 94.3879 507.48 94.4001L507.44 94.38ZM507.52 96.01C507.056 95.98 506.59 96.0472 506.152 96.2073C505.715 96.3674 505.316 96.617 504.98 96.94C504.327 97.6653 503.921 98.5792 503.82 99.5501H510.7C510.707 99.0743 510.632 98.6009 510.48 98.1501C510.354 97.7357 510.15 97.3489 509.88 97.01C509.6 96.7034 509.26 96.4583 508.88 96.29C508.443 96.1083 507.973 96.0197 507.5 96.03L507.52 96.01Z" fill="black"/>
<path d="M525.23 105.67C525.339 105.695 525.435 105.756 525.504 105.843C525.574 105.931 525.611 106.039 525.61 106.15V107.23H522.99C522.813 107.226 522.637 107.192 522.47 107.13C522.32 107.08 522.27 106.93 522.22 106.73L521.96 105.52C521.61 105.83 521.26 106.1 520.96 106.35C520.659 106.601 520.322 106.807 519.96 106.96C519.604 107.113 519.236 107.237 518.86 107.33C518.414 107.428 517.957 107.471 517.5 107.46C517.037 107.463 516.577 107.385 516.14 107.23C515.727 107.108 515.343 106.904 515.01 106.63C514.694 106.329 514.439 105.969 514.26 105.57C514.057 105.097 513.962 104.585 513.98 104.07C513.978 103.556 514.116 103.051 514.38 102.61C514.729 102.089 515.194 101.658 515.74 101.35C516.493 100.928 517.305 100.624 518.15 100.45C519.358 100.206 520.589 100.095 521.82 100.12V99.12C521.879 98.3133 521.649 97.512 521.17 96.86C520.935 96.5974 520.644 96.3909 520.319 96.2559C519.994 96.1209 519.642 96.0608 519.29 96.08C518.816 96.063 518.344 96.1412 517.9 96.31C517.552 96.4248 517.217 96.5756 516.9 96.76C516.62 96.93 516.37 97.06 516.17 97.21C516.006 97.3418 515.801 97.4125 515.59 97.41C515.45 97.4209 515.309 97.3859 515.19 97.31C515.086 97.2298 515 97.1273 514.94 97.01L514.54 96.31C515.194 95.6715 515.96 95.1595 516.8 94.8C517.659 94.4479 518.582 94.2777 519.51 94.3C520.165 94.28 520.816 94.3993 521.42 94.65C521.939 94.8705 522.409 95.1936 522.8 95.6C523.194 96.0342 523.488 96.5497 523.66 97.11C523.862 97.7569 523.957 98.4325 523.94 99.11V105.47C524.29 105.54 525.04 105.69 525.19 105.74L525.23 105.67ZM521.76 101.55C520.887 101.533 520.013 101.593 519.15 101.73C518.544 101.834 517.953 102.012 517.39 102.26C516.994 102.412 516.648 102.672 516.39 103.01C516.178 103.299 516.069 103.651 516.08 104.01C516.081 104.303 516.143 104.592 516.26 104.86C516.352 105.098 516.507 105.306 516.71 105.46C516.908 105.61 517.132 105.722 517.37 105.79C517.638 105.877 517.918 105.921 518.2 105.92C518.893 105.916 519.576 105.759 520.2 105.46C520.495 105.306 520.773 105.122 521.03 104.91C521.293 104.69 521.543 104.457 521.78 104.21L521.76 101.55Z" fill="black"/>
<path d="M531.06 97.1699C531.99 95.2799 533.27 94.3299 534.93 94.3299C535.537 94.3184 536.136 94.4741 536.66 94.7799L536.39 96.4599C536.34 96.6599 536.21 96.7899 536.06 96.7899C535.855 96.7753 535.653 96.7315 535.46 96.6599C535.134 96.5759 534.797 96.5355 534.46 96.5399C533 96.5399 531.89 97.4399 531.19 99.1999V105.48C531.39 105.53 531.87 105.61 532.62 105.76C532.732 105.777 532.834 105.836 532.904 105.925C532.975 106.014 533.009 106.127 533 106.24V107.29H527.14V106.24C527.131 106.127 527.165 106.014 527.236 105.925C527.306 105.836 527.408 105.777 527.52 105.76L528.95 105.48V96.4099C528.15 96.2599 527.67 96.1599 527.52 96.1099C527.408 96.0926 527.306 96.0335 527.236 95.9445C527.165 95.8555 527.131 95.7431 527.14 95.6299V94.6299H530.23C530.49 94.6299 530.61 94.6299 530.71 94.7499C530.821 94.8879 530.89 95.0543 530.91 95.2299L531.06 97.2299V97.1699Z" fill="black"/>
<path d="M542.89 107.47C542.135 107.501 541.383 107.361 540.691 107.059C539.998 106.758 539.382 106.303 538.89 105.73C537.856 104.363 537.288 102.7 537.27 100.987C537.252 99.2726 537.785 97.5983 538.79 96.2101C539.355 95.5928 540.05 95.1086 540.825 94.7921C541.6 94.4757 542.435 94.3349 543.27 94.3801C544.57 94.4585 545.846 94.763 547.04 95.28V98.6001H546.04C545.989 98.607 545.936 98.6034 545.886 98.5893C545.836 98.5752 545.79 98.551 545.749 98.5182C545.709 98.4854 545.676 98.4447 545.652 98.3985C545.628 98.3524 545.614 98.3019 545.61 98.2501C545.61 98.1501 545.61 97.8401 545.51 97.2501C545.41 96.6601 545.44 96.4501 545.44 96.4201C545.03 96.3001 544.73 96.2501 544.53 96.2001C544.064 96.1252 543.592 96.0885 543.12 96.0901C542.642 96.1041 542.173 96.2165 541.74 96.4201C541.28 96.6349 540.877 96.9532 540.56 97.3501C539.846 98.3803 539.495 99.6184 539.56 100.87C539.496 102.137 539.847 103.391 540.56 104.44C540.875 104.849 541.284 105.177 541.752 105.394C542.221 105.612 542.734 105.713 543.25 105.69C544.279 105.702 545.274 105.327 546.04 104.64C546.106 104.574 546.184 104.523 546.27 104.488C546.356 104.454 546.448 104.438 546.54 104.44C546.619 104.432 546.698 104.447 546.769 104.482C546.84 104.518 546.899 104.572 546.94 104.64L547.55 105.47C546.977 106.136 546.259 106.663 545.452 107.009C544.644 107.356 543.768 107.514 542.89 107.47Z" fill="black"/>
<path d="M557.14 94.3801C557.732 94.3441 558.325 94.4424 558.874 94.6674C559.423 94.8925 559.914 95.2387 560.31 95.6801C561.081 96.6868 561.471 97.9337 561.41 99.2001V105.46C562.22 105.61 562.69 105.71 562.84 105.76C562.954 105.775 563.057 105.834 563.127 105.923C563.198 106.013 563.232 106.126 563.22 106.24V107.29H559.22V99.2001C559.22 97.2001 558.31 96.2001 556.53 96.2001C555.864 96.2269 555.213 96.4004 554.621 96.7081C554.03 97.0157 553.514 97.4501 553.11 97.9801V105.52L553.41 105.57L554.52 105.8C554.634 105.817 554.738 105.876 554.812 105.964C554.885 106.052 554.924 106.165 554.92 106.28V107.33H549V106.28C548.997 106.165 549.035 106.052 549.109 105.964C549.183 105.876 549.286 105.817 549.4 105.8L550.81 105.52V90.6701C549.81 90.5201 549.3 90.4201 549.15 90.3701C549.036 90.353 548.933 90.2947 548.859 90.2062C548.785 90.1177 548.747 90.0052 548.75 89.8901V88.8401H553.07V96.3301C553.572 95.7352 554.194 95.2537 554.896 94.9175C555.597 94.5813 556.362 94.3981 557.14 94.3801Z" fill="black"/>
<g style="mix-blend-mode:multiply">
<path fill-rule="evenodd" clip-rule="evenodd" d="M249.49 106.26C249.49 107.53 249.113 108.772 248.407 109.828C247.701 110.884 246.698 111.707 245.524 112.192C244.351 112.678 243.059 112.805 241.814 112.556C240.568 112.307 239.424 111.695 238.527 110.796C237.629 109.897 237.019 108.752 236.772 107.506C236.525 106.26 236.654 104.969 237.141 103.796C237.629 102.623 238.453 101.621 239.51 100.917C240.568 100.213 241.81 99.8381 243.08 99.8401C243.923 99.8401 244.757 100.006 245.535 100.329C246.314 100.652 247.021 101.125 247.616 101.721C248.211 102.317 248.683 103.025 249.005 103.804C249.326 104.583 249.491 105.417 249.49 106.26Z" fill="#00ADEE"/>
</g>
<g style="mix-blend-mode:multiply">
<path fill-rule="evenodd" clip-rule="evenodd" d="M229.82 14.84C229.822 17.7779 228.953 20.6504 227.322 23.094C225.691 25.5376 223.371 27.4425 220.658 28.5677C217.944 29.6929 214.957 29.9878 212.075 29.4151C209.194 28.8425 206.547 27.428 204.47 25.3505C202.392 23.2731 200.978 20.6262 200.405 17.7446C199.832 14.8631 200.127 11.8764 201.252 9.16253C202.378 6.44863 204.283 4.12949 206.726 2.49851C209.17 0.86753 212.042 -0.00197435 214.98 3.36631e-06C218.916 3.36631e-06 222.691 1.56349 225.474 4.34653C228.257 7.12957 229.82 10.9042 229.82 14.84Z" fill="#652D90"/>
</g>
<g style="mix-blend-mode:multiply">
<path d="M288.42 32.6701C289.988 30.1748 292.342 28.2717 295.11 27.2601C294.63 22.6203 292.481 18.3128 289.063 15.1391C285.644 11.9653 281.189 10.1415 276.527 10.007C271.864 9.87252 267.312 11.4365 263.716 14.4078C260.12 17.3792 257.726 21.5557 256.98 26.1601C262.222 23.7132 268.115 23.025 273.78 24.198C279.445 25.3711 284.58 28.3426 288.42 32.6701Z" fill="#EB008B"/>
</g>
<g style="mix-blend-mode:multiply">
<path d="M287.39 44.7199C284.528 46.8485 281.13 48.1387 277.576 48.4461C274.023 48.7535 270.454 48.066 267.269 46.4605C264.083 44.855 261.408 42.3948 259.542 39.3553C257.675 36.3157 256.691 32.8167 256.7 29.2499C256.708 28.211 256.799 27.1745 256.97 26.1499C252.216 28.3706 248.216 31.9342 245.463 36.4012C242.71 40.8682 241.325 46.0432 241.478 51.2881C241.631 56.5331 243.316 61.6185 246.324 65.9173C249.333 70.2161 253.534 73.5403 258.41 75.4799C259.512 72.6219 261.288 70.0727 263.588 68.0495C265.888 66.0263 268.642 64.5891 271.617 63.8603C274.592 63.1315 277.7 63.1328 280.674 63.864C283.648 64.5953 286.402 66.0348 288.7 68.0599C292.555 63.6083 294.833 58.0086 295.18 52.1299C293.437 51.5055 291.844 50.5238 290.502 49.2478C289.161 47.9718 288.101 46.4295 287.39 44.7199Z" fill="#FAAF40"/>
</g>
<g style="mix-blend-mode:multiply">
<path d="M275.97 48.5099C280.085 48.5085 284.091 47.1793 287.39 44.7199C286.581 42.7761 286.249 40.6666 286.423 38.5683C286.597 36.4699 287.272 34.4438 288.39 32.6599C284.55 28.3324 279.416 25.3609 273.75 24.1879C268.085 23.0148 262.193 23.703 256.95 26.1499C256.779 27.1745 256.688 28.2111 256.68 29.2499C256.681 31.7813 257.182 34.2877 258.152 36.6258C259.122 38.9639 260.543 41.0879 262.335 42.8765C264.126 44.665 266.252 46.0832 268.592 47.0498C270.932 48.0164 273.439 48.5125 275.97 48.5099Z" fill="#F1003A"/>
</g>
<g style="mix-blend-mode:multiply">
<path d="M268.34 77.38C264.943 77.3807 261.576 76.7359 258.42 75.48C257.17 78.7194 256.831 82.2395 257.441 85.6579C258.051 89.0762 259.585 92.2621 261.879 94.8694C264.172 97.4767 267.136 99.4058 270.448 100.447C273.761 101.488 277.295 101.602 280.668 100.775C284.04 99.949 287.122 98.2142 289.578 95.7594C292.033 93.3047 293.77 90.2239 294.597 86.8518C295.425 83.4796 295.313 79.9451 294.274 76.6321C293.234 73.3191 291.306 70.3544 288.7 68.0601C286.179 70.9903 283.055 73.3405 279.54 74.9492C276.026 76.558 272.205 77.3872 268.34 77.38Z" fill="#37B34A"/>
</g>
<g style="mix-blend-mode:multiply">
<path d="M258.42 75.48C263.612 77.5482 269.319 77.9449 274.747 76.6149C280.175 75.2848 285.053 72.2942 288.7 68.06C286.402 66.0414 283.651 64.6073 280.68 63.8798C277.709 63.1522 274.606 63.1527 271.635 63.8811C268.665 64.6096 265.914 66.0444 263.617 68.0638C261.319 70.0831 259.543 72.6273 258.44 75.48H258.42Z" fill="#1F801E"/>
</g>
<g style="mix-blend-mode:multiply">
<path d="M299.62 26.45C298.081 26.4518 296.555 26.7225 295.11 27.2499C295.525 31.3086 294.643 35.3943 292.59 38.92C294.319 42.5351 295.215 46.4925 295.21 50.4999C295.21 51.0499 295.21 51.59 295.16 52.13C296.976 52.783 298.914 53.0306 300.836 52.8554C302.759 52.6802 304.619 52.0864 306.288 51.1158C307.956 50.1451 309.392 48.8211 310.495 47.2367C311.597 45.6522 312.34 43.8457 312.67 41.9438C313.001 40.0419 312.911 38.0908 312.407 36.2274C311.903 34.364 310.998 32.6333 309.754 31.1569C308.511 29.6805 306.959 28.4941 305.208 27.681C303.458 26.8679 301.55 26.4477 299.62 26.45Z" fill="#00ADEE"/>
</g>
<g style="mix-blend-mode:multiply">
<path d="M288.42 32.67C290.101 34.5477 291.505 36.6556 292.59 38.93C294.643 35.4044 295.525 31.3186 295.11 27.26C292.342 28.2717 289.988 30.1748 288.42 32.67Z" fill="#2E008B"/>
</g>
<g style="mix-blend-mode:multiply">
<path d="M292.59 38.9199C291.267 41.1853 289.498 43.1584 287.39 44.7199C288.099 46.4275 289.156 47.9686 290.494 49.2445C291.831 50.5204 293.421 51.5032 295.16 52.1299C295.16 51.5899 295.21 51.0499 295.21 50.4999C295.215 46.4924 294.32 42.535 292.59 38.9199Z" fill="#1F801E"/>
</g>
<g style="mix-blend-mode:multiply">
<path d="M286.39 39.6701C286.396 41.3858 286.736 43.0839 287.39 44.6701C289.498 43.1086 291.267 41.1355 292.59 38.8701C291.505 36.5957 290.1 34.4878 288.42 32.6101C287.085 34.7224 286.381 37.1716 286.39 39.6701Z" fill="#210034"/>
</g>
</g>
<defs>
<clipPath id="clip0_1085_5479">
<rect width="563.222" height="112.68" fill="white"/>
</clipPath>
</defs>
</svg>
